<svg width="23" height="29" viewBox="0 0 23 29" fill="none" xmlns="http://www.w3.org/2000/svg">
<path d="M11.6666 6.5C10.6777 6.5 9.71102 6.79325 8.88877 7.34265C8.06653 7.89206 7.42567 8.67295 7.04723 9.58658C6.66879 10.5002 6.56977 11.5055 6.7627 12.4755C6.95563 13.4454 7.43183 14.3363 8.13109 15.0355C8.83035 15.7348 9.72127 16.211 10.6912 16.4039C11.6611 16.5969 12.6664 16.4978 13.58 16.1194C14.4937 15.741 15.2746 15.1001 15.824 14.2779C16.3734 13.4556 16.6666 12.4889 16.6666 11.5C16.6666 10.1739 16.1398 8.90215 15.2022 7.96447C14.2645 7.02678 12.9927 6.5 11.6666 6.5ZM11.6666 14.5C11.0733 14.5 10.4933 14.3241 9.99992 13.9944C9.50657 13.6648 9.12205 13.1962 8.89499 12.6481C8.66792 12.0999 8.60851 11.4967 8.72427 10.9147C8.84003 10.3328 9.12575 9.79824 9.54531 9.37868C9.96486 8.95912 10.4994 8.6734 11.0814 8.55764C11.6633 8.44189 12.2665 8.5013 12.8147 8.72836C13.3629 8.95542 13.8314 9.33994 14.161 9.83329C14.4907 10.3266 14.6666 10.9067 14.6666 11.5C14.6666 12.2956 14.3506 13.0587 13.7879 13.6213C13.2253 14.1839 12.4623 14.5 11.6666 14.5ZM11.6666 0.5C8.75026 0.503308 5.95429 1.6633 3.89211 3.72548C1.82992 5.78766 0.669934 8.58363 0.666626 11.5C0.666626 15.425 2.48038 19.585 5.91663 23.5312C7.46065 25.3145 9.19844 26.9202 11.0979 28.3188C11.266 28.4365 11.4663 28.4997 11.6716 28.4997C11.8769 28.4997 12.0772 28.4365 12.2454 28.3188C14.1413 26.9196 15.8757 25.3139 17.4166 23.5312C20.8479 19.585 22.6666 15.425 22.6666 11.5C22.6633 8.58363 21.5033 5.78766 19.4411 3.72548C17.379 1.6633 14.583 0.503308 11.6666 0.5ZM11.6666 26.25C9.60038 24.625 2.66663 18.6562 2.66663 11.5C2.66663 9.11305 3.61484 6.82387 5.30266 5.13604C6.99049 3.44821 9.27968 2.5 11.6666 2.5C14.0536 2.5 16.3428 3.44821 18.0306 5.13604C19.7184 6.82387 20.6666 9.11305 20.6666 11.5C20.6666 18.6537 13.7329 24.625 11.6666 26.25Z" fill="#F472B6"/>
</svg>
